<?xml version="1.0" standalone="no"?>
<!DOCTYPE svg PUBLIC "-//W3C//DTD SVG 20010904//EN"
 "http://www.w3.org/TR/2001/REC-SVG-20010904/DTD/svg10.dtd">
<svg version="1.0" xmlns="http://www.w3.org/2000/svg"
 width="608.000000pt" height="580.000000pt" viewBox="0 0 608.000000 580.000000"
 preserveAspectRatio="xMidYMid meet">

<g transform="translate(0.000000,580.000000) scale(0.100000,-0.100000)"
fill="#000000" stroke="none">
<path d="M0 2900 l0 -2900 3040 0 3040 0 0 2900 0 2900 -3040 0 -3040 0 0
-2900z m940 -1525 l0 -254 63 -3 62 -3 3 -52 3 -53 -125 0 -126 0 0 310 0 310
60 0 60 0 0 -255z m440 242 c13 -7 35 -28 47 -46 22 -33 23 -42 23 -243 0
-228 -6 -257 -55 -296 -21 -17 -41 -22 -87 -22 -74 0 -112 19 -138 70 -18 36
-20 59 -20 250 0 232 3 244 65 281 35 22 127 25 165 6z m420 -12 c30 -27 42
-58 49 -127 l7 -58 -63 0 -63 0 0 45 c0 49 -18 67 -45 45 -12 -10 -15 -45 -15
-189 0 -97 4 -182 9 -189 5 -8 17 -12 27 -10 16 3 19 14 22 71 2 55 0 67 -13
67 -12 0 -15 12 -15 55 l0 55 75 0 75 0 0 -180 0 -180 -25 0 c-14 0 -25 3 -25
8 0 4 -4 13 -9 21 -7 12 -14 10 -36 -8 -20 -15 -42 -21 -79 -21 -44 0 -56 4
-78 28 -44 45 -48 71 -48 284 0 223 7 254 64 290 42 26 154 22 186 -7z m268
-287 l2 -308 -60 0 -60 0 0 310 0 311 58 -3 57 -3 3 -307z m357 270 c34 -37
51 -105 43 -173 -3 -29 -4 -30 -65 -33 l-62 -3 -3 68 c-3 60 -5 68 -23 68 -19
0 -20 -7 -20 -195 0 -188 1 -195 20 -195 18 0 21 8 25 75 l5 75 60 0 60 0 -1
-85 c0 -136 -37 -180 -149 -180 -73 0 -112 21 -136 73 -16 36 -19 67 -19 226
0 209 8 248 58 293 33 28 39 30 105 26 65 -4 71 -6 102 -40z m589 21 c36 -29
54 -67 62 -133 l7 -56 -60 0 -60 0 -9 47 c-9 49 -19 59 -44 43 -12 -7 -16 -39
-18 -151 -2 -77 -1 -161 3 -186 13 -87 65 -61 65 33 0 43 -3 53 -20 57 -17 4
-20 13 -19 56 l2 51 78 0 79 0 0 -180 0 -180 -29 0 c-23 0 -30 5 -35 26 l-7
27 -28 -27 c-22 -21 -36 -26 -80 -26 -44 0 -57 4 -81 28 -42 42 -50 88 -50
289 0 207 10 251 64 284 45 27 144 26 180 -2z m276 -74 c18 -97 21 -95 41 23
l12 72 59 0 c50 0 58 -3 58 -18 0 -11 -20 -101 -45 -201 -40 -160 -45 -195
-45 -291 l0 -110 -60 0 -60 0 0 98 c0 95 -9 145 -95 500 -5 22 -4 23 57 20
l62 -3 16 -90z m465 -42 c32 -250 29 -241 44 -143 6 47 17 128 24 180 l13 95
97 3 97 3 0 -311 0 -310 -60 0 -60 0 -1 188 -2 187 -30 -187 -31 -188 -57 0
-57 0 -12 68 c-6 37 -21 128 -34 202 l-24 135 -1 -202 -1 -203 -55 0 -55 0 0
310 0 310 94 0 93 0 18 -137z m830 123 c63 -27 70 -54 70 -291 0 -299 -10
-315 -205 -315 l-100 0 0 310 0 310 100 0 c64 0 113 -5 135 -14z m285 -296 l0
-310 -60 0 -60 0 0 310 0 310 60 0 60 0 0 -310z m350 250 l0 -60 -60 0 -60 0
0 -60 0 -60 55 0 55 0 0 -60 0 -60 -55 0 -55 0 0 -70 0 -70 65 0 65 0 0 -60 0
-60 -130 0 -130 0 0 310 0 310 125 0 125 0 0 -60z m350 0 l0 -60 -35 0 -35 0
0 -250 0 -250 -65 0 -65 0 0 250 0 250 -35 0 -35 0 0 60 0 60 135 0 135 0 0
-60z"/>
<path d="M1282 1508 c-13 -13 -18 -341 -6 -372 8 -21 40 -21 48 0 3 9 6 93 6
188 0 163 -5 196 -30 196 -3 0 -11 -5 -18 -12z"/>
<path d="M4480 1320 l0 -201 23 3 c22 3 22 3 22 198 0 195 0 195 -22 198 l-23
3 0 -201z"/>
</g>
</svg>
