<?xml version="1.0" standalone="no"?>
<!DOCTYPE svg PUBLIC "-//W3C//DTD SVG 20010904//EN"
 "http://www.w3.org/TR/2001/REC-SVG-20010904/DTD/svg10.dtd">
<svg version="1.0" xmlns="http://www.w3.org/2000/svg"
 width="820.000000pt" height="680.000000pt" viewBox="0 0 820.000000 680.000000"
 preserveAspectRatio="xMidYMid meet">

<g transform="translate(0.000000,680.000000) scale(0.100000,-0.100000)"
fill="#000000" stroke="none">
<path d="M6125 6306 c-74 -18 -166 -70 -210 -117 -5 -6 -25 -26 -42 -45 -18
-18 -33 -43 -33 -54 0 -11 -4 -20 -10 -20 -5 0 -10 -9 -10 -20 0 -11 -4 -20
-10 -20 -5 0 -10 -18 -10 -40 0 -22 -4 -40 -10 -40 -5 0 -10 -24 -10 -54 0
-30 5 -58 10 -61 6 -3 10 -19 10 -36 0 -16 6 -38 12 -49 15 -23 37 1 -322
-340 -129 -122 -278 -264 -330 -314 -53 -50 -116 -110 -141 -133 l-45 -43 -54
22 c-44 17 -76 22 -160 22 -116 0 -178 -18 -261 -73 l-42 -29 -121 64 c-67 35
-221 117 -343 182 l-223 117 0 60 c0 210 -139 386 -347 440 -153 40 -319 -8
-434 -125 -69 -71 -104 -140 -120 -235 l-12 -72 -331 -110 -331 -110 -41 33
c-181 147 -465 132 -624 -34 -77 -80 -82 -89 -108 -163 -80 -237 67 -487 325
-554 206 -54 433 49 528 237 19 39 35 80 35 92 0 11 4 27 9 35 5 8 155 74 332
146 l323 133 46 -38 c166 -139 392 -145 575 -16 18 13 49 -1 365 -164 l344
-178 -3 -45 c-3 -62 16 -163 42 -217 26 -53 131 -152 200 -187 85 -42 161 -56
272 -49 84 6 106 11 140 33 22 15 56 37 75 49 66 44 136 126 159 189 31 82 37
184 17 260 l-15 60 297 290 c163 159 352 343 418 408 115 112 123 118 145 106
40 -21 122 -39 179 -39 114 0 234 51 315 135 137 140 162 328 68 507 -32 60
-32 61 -93 110 -118 94 -259 128 -395 94z"/>
<path d="M6115 4813 c-224 -54 -363 -201 -354 -376 1 -29 1 -831 1 -1784 l-2
-1732 -277 -3 -276 -3 6 640 c4 352 12 739 18 860 13 274 7 726 -9 777 -34
103 -144 200 -275 240 -101 32 -264 31 -357 -1 -123 -43 -208 -110 -252 -199
l-23 -47 -3 -1128 -2 -1127 -269 0 -269 0 -6 728 c-15 1774 -23 2296 -37 2336
-19 55 -97 137 -161 169 -154 77 -362 77 -517 -1 -72 -36 -144 -116 -161 -179
-7 -26 -17 -52 -21 -57 -5 -6 -9 -684 -9 -1508 l0 -1498 -280 0 -280 0 0 1253
c0 1216 -1 1253 -20 1295 -44 97 -128 168 -250 213 -93 34 -273 35 -375 1
-151 -50 -257 -164 -276 -298 -7 -46 -6 -450 1 -1184 5 -613 10 -1152 10
-1197 l0 -83 -155 0 c-105 0 -162 4 -175 12 -13 8 -23 9 -29 3 -5 -6 -11 -98
-13 -205 l-3 -195 905 -2 c498 -2 1852 1 3010 5 l2105 7 9 177 c7 138 6 181
-4 193 -10 12 -44 15 -191 15 l-179 0 0 438 c0 240 7 1045 16 1787 l16 1350
-23 60 c-41 110 -176 214 -317 244 -52 11 -208 13 -247 4z"/>
</g>
</svg>
