<?xml version="1.0" standalone="no"?>
<!DOCTYPE svg PUBLIC "-//W3C//DTD SVG 20010904//EN"
 "http://www.w3.org/TR/2001/REC-SVG-20010904/DTD/svg10.dtd">
<svg version="1.0" xmlns="http://www.w3.org/2000/svg"
 width="820.000000pt" height="680.000000pt" viewBox="0 0 820.000000 680.000000"
 preserveAspectRatio="xMidYMid meet">

<g transform="translate(0.000000,680.000000) scale(0.100000,-0.100000)"
fill="#000000" stroke="none">
<path d="M3870 6450 c0 -6 -28 -10 -65 -10 -37 0 -65 -4 -65 -10 0 -6 -35 -10
-84 -10 -46 0 -86 -4 -88 -10 -1 -5 -45 -12 -95 -16 -51 -4 -93 -11 -93 -15 0
-5 -13 -9 -30 -9 -16 0 -30 -4 -30 -10 0 -5 -18 -10 -40 -10 -22 0 -40 -4 -40
-10 0 -5 -15 -10 -34 -10 -19 0 -36 -5 -38 -10 -2 -6 -29 -14 -61 -17 -31 -3
-57 -10 -57 -14 0 -5 -7 -9 -15 -9 -8 0 -15 -4 -15 -10 0 -5 -18 -10 -40 -10
-22 0 -40 -4 -40 -9 0 -5 -18 -12 -40 -16 -22 -4 -40 -11 -40 -16 0 -5 -11 -9
-25 -9 -14 0 -25 -4 -25 -10 0 -5 -9 -10 -20 -10 -11 0 -20 -4 -20 -9 0 -5
-18 -12 -40 -16 -22 -4 -40 -11 -40 -16 0 -5 -9 -9 -20 -9 -11 0 -20 -4 -20
-10 0 -5 -7 -10 -15 -10 -8 0 -15 -4 -15 -9 0 -5 -18 -12 -40 -16 -22 -4 -40
-11 -40 -16 0 -5 -9 -9 -20 -9 -11 0 -20 -4 -20 -10 0 -5 -9 -10 -19 -10 -11
0 -22 -9 -26 -19 -4 -13 -19 -22 -44 -26 -20 -3 -44 -15 -51 -26 -8 -10 -20
-19 -28 -19 -7 0 -20 -7 -28 -15 -9 -8 -24 -15 -35 -15 -10 0 -19 -4 -19 -8 0
-17 -36 -49 -62 -56 -16 -3 -28 -11 -28 -16 0 -6 -7 -10 -15 -10 -9 0 -27 -11
-41 -25 -14 -14 -29 -25 -35 -25 -5 0 -29 -19 -54 -42 -59 -57 -72 -68 -85
-68 -6 0 -38 -26 -70 -57 -33 -32 -77 -74 -100 -93 -76 -65 -90 -81 -90 -100
0 -13 -7 -20 -20 -20 -11 0 -20 -5 -20 -11 0 -13 -58 -69 -71 -69 -5 0 -9 -8
-9 -18 0 -10 -10 -24 -21 -32 -37 -26 -49 -41 -49 -61 0 -10 -4 -19 -8 -19
-15 0 -52 -37 -52 -51 0 -8 -9 -21 -20 -29 -11 -8 -20 -20 -20 -27 0 -7 -4
-13 -10 -13 -5 0 -10 -9 -10 -19 0 -11 -9 -23 -20 -26 -11 -3 -20 -15 -20 -26
0 -10 -4 -19 -10 -19 -5 0 -12 -11 -16 -25 -3 -14 -10 -25 -15 -25 -5 0 -9 -9
-9 -19 0 -11 -9 -23 -20 -26 -11 -3 -20 -15 -20 -26 0 -10 -4 -19 -10 -19 -5
0 -10 -9 -10 -20 0 -11 -4 -20 -10 -20 -5 0 -10 -7 -10 -15 0 -8 -4 -15 -10
-15 -5 0 -10 -9 -10 -20 0 -11 -4 -20 -10 -20 -5 0 -10 -7 -10 -15 0 -8 -4
-15 -10 -15 -5 0 -10 -9 -10 -20 0 -11 -4 -20 -10 -20 -5 0 -13 -18 -16 -40
-4 -22 -10 -40 -15 -40 -5 0 -9 -9 -9 -20 0 -11 -4 -20 -10 -20 -5 0 -10 -9
-10 -20 0 -11 -4 -20 -10 -20 -5 0 -10 -11 -10 -25 0 -14 -4 -25 -10 -25 -5 0
-10 -7 -10 -15 0 -8 -4 -15 -10 -15 -5 0 -10 -16 -10 -35 0 -19 -4 -35 -10
-35 -5 0 -10 -9 -10 -20 0 -11 -4 -20 -10 -20 -5 0 -10 -16 -10 -35 0 -19 -4
-35 -10 -35 -5 0 -10 -15 -10 -34 0 -19 -5 -36 -11 -38 -5 -2 -13 -38 -16 -81
-3 -42 -10 -77 -14 -77 -5 0 -9 -11 -9 -25 0 -14 -4 -25 -10 -25 -6 0 -10 -28
-10 -65 0 -37 -4 -65 -10 -65 -5 0 -10 -22 -10 -50 0 -27 -4 -50 -10 -50 -6 0
-10 -53 -10 -140 0 -87 -4 -140 -10 -140 -6 0 -10 -28 -10 -65 0 -37 4 -65 10
-65 6 0 10 -57 10 -150 0 -93 4 -150 10 -150 6 0 10 -20 10 -45 0 -25 5 -45
10 -45 6 0 10 -30 10 -70 0 -40 4 -70 10 -70 6 0 10 -11 10 -25 0 -14 4 -25 9
-25 4 0 11 -35 14 -77 3 -43 11 -79 16 -81 6 -2 11 -19 11 -38 0 -19 5 -34 10
-34 6 0 10 -16 10 -35 0 -19 5 -35 10 -35 6 0 10 -7 10 -15 0 -8 5 -15 10 -15
6 0 10 -13 10 -30 0 -16 5 -30 10 -30 6 0 10 -7 10 -15 0 -8 5 -15 10 -15 6 0
10 -16 10 -35 0 -19 5 -35 10 -35 6 0 10 -9 10 -20 0 -11 5 -20 10 -20 6 0 10
-7 10 -15 0 -8 5 -15 10 -15 6 0 10 -14 10 -30 0 -18 6 -33 15 -36 9 -4 15
-19 15 -35 0 -16 5 -29 10 -29 6 0 10 -7 10 -15 0 -8 5 -15 10 -15 6 0 10 -9
10 -20 0 -11 5 -20 10 -20 6 0 10 -6 10 -13 0 -7 9 -19 20 -27 11 -8 20 -24
20 -35 0 -11 9 -27 20 -35 11 -8 20 -22 20 -32 0 -10 4 -18 9 -18 5 0 12 -11
15 -25 4 -14 11 -25 16 -25 6 0 10 -9 10 -19 0 -11 9 -23 20 -26 11 -3 20 -14
20 -23 0 -10 9 -24 20 -32 11 -8 20 -19 20 -25 0 -6 9 -17 20 -25 11 -8 20
-18 20 -23 0 -4 11 -19 25 -33 14 -14 25 -30 25 -35 0 -6 13 -24 30 -39 16
-15 30 -35 30 -44 0 -9 4 -16 9 -16 5 0 28 -17 50 -38 22 -20 47 -43 56 -50 8
-7 15 -22 15 -32 0 -11 4 -20 9 -20 9 0 53 -38 136 -118 25 -23 49 -42 54 -42
9 0 38 -25 128 -110 18 -16 37 -30 42 -30 6 0 21 -11 35 -25 14 -14 30 -25 36
-25 6 0 18 -6 25 -12 34 -31 45 -38 57 -38 8 0 20 -9 28 -20 8 -11 20 -20 27
-20 7 0 13 -4 13 -10 0 -5 12 -13 27 -16 16 -4 35 -15 44 -26 9 -10 24 -18 33
-18 9 0 16 -4 16 -10 0 -5 9 -10 19 -10 11 0 26 -7 35 -15 8 -8 18 -15 23 -15
5 0 15 -9 23 -19 7 -11 31 -23 52 -26 21 -4 38 -11 38 -16 0 -5 9 -9 20 -9 11
0 20 -4 20 -10 0 -5 7 -10 15 -10 8 0 15 -4 15 -9 0 -6 21 -13 48 -17 26 -4
54 -15 63 -25 9 -11 28 -19 43 -19 14 0 26 -4 26 -10 0 -5 6 -10 14 -10 8 0
16 -5 18 -10 2 -6 28 -13 58 -17 35 -4 61 -13 71 -25 9 -10 30 -18 48 -18 17
0 31 -4 31 -9 0 -5 27 -12 60 -16 33 -4 60 -11 60 -16 0 -5 16 -9 35 -9 19 0
35 -4 35 -10 0 -5 14 -10 30 -10 17 0 30 -4 30 -9 0 -4 37 -11 82 -14 46 -4
84 -11 86 -17 2 -5 33 -10 68 -10 36 0 64 -4 64 -10 0 -6 33 -10 79 -10 54 0
81 -4 83 -12 6 -17 690 -17 696 0 2 8 30 12 78 12 43 0 74 4 74 10 0 6 28 10
64 10 35 0 66 5 68 10 2 6 43 13 91 17 48 3 87 10 87 14 0 5 11 9 25 9 14 0
25 5 25 10 0 6 18 10 40 10 22 0 40 4 40 9 0 5 25 12 55 16 30 3 55 11 55 16
0 5 16 9 36 9 23 0 43 7 53 18 9 11 37 22 66 26 28 3 52 11 53 16 2 6 12 10
23 10 10 0 19 5 19 10 0 6 14 10 30 10 17 0 30 5 30 10 0 6 7 10 15 10 8 0 15
4 15 9 0 5 18 12 40 16 22 4 40 11 40 16 0 5 9 9 20 9 11 0 20 5 20 10 0 6 9
10 20 10 11 0 20 4 20 9 0 5 15 13 32 17 18 3 40 15 49 25 9 11 24 19 33 19 9
0 16 5 16 10 0 6 9 10 19 10 11 0 26 7 35 15 8 8 21 15 30 15 8 0 18 9 21 20
3 11 15 20 25 20 10 0 25 7 34 15 8 8 21 15 28 15 8 0 20 9 28 20 8 11 21 20
29 20 7 0 24 11 37 25 13 14 28 25 34 25 6 0 22 11 36 25 14 14 32 25 40 25 8
0 44 29 79 65 36 36 71 65 79 65 9 0 54 38 101 85 48 47 90 85 96 85 5 0 9 8
9 18 0 10 10 24 21 32 36 25 109 99 109 111 0 6 14 24 30 39 17 15 30 31 30
35 0 4 14 20 30 35 17 15 30 31 30 34 0 4 11 18 25 32 14 14 25 31 25 39 0 8
5 15 10 15 6 0 10 9 10 19 0 11 9 23 20 26 11 3 20 14 20 23 0 10 9 24 20 32
11 8 20 20 20 27 0 7 5 13 10 13 6 0 10 8 10 18 0 10 9 24 20 32 11 8 20 20
20 27 0 7 4 13 9 13 5 0 12 16 15 35 4 19 11 35 16 35 6 0 10 9 10 20 0 11 5
20 10 20 6 0 10 7 10 15 0 8 5 15 10 15 6 0 10 9 10 20 0 11 5 20 10 20 6 0
10 7 10 15 0 8 5 15 10 15 6 0 10 13 10 29 0 21 6 32 20 36 14 4 20 15 20 36
0 16 5 29 10 29 6 0 10 11 10 25 0 14 4 25 9 25 5 0 13 25 16 55 4 30 11 55
16 55 5 0 9 7 9 15 0 8 5 15 10 15 6 0 10 16 10 35 0 19 5 35 10 35 6 0 10 11
10 25 0 14 5 25 10 25 6 0 10 16 10 35 0 19 5 35 10 35 6 0 10 20 10 45 0 25
5 45 10 45 6 0 10 16 10 35 0 19 5 35 10 35 6 0 10 30 10 70 0 40 4 70 10 70
6 0 10 18 10 39 0 22 5 41 11 43 15 5 15 741 0 746 -6 2 -11 19 -11 38 0 19
-4 34 -10 34 -6 0 -10 28 -10 65 0 37 -4 65 -10 65 -5 0 -10 16 -10 35 0 19
-4 35 -10 35 -5 0 -10 20 -10 45 0 25 -4 45 -10 45 -5 0 -10 16 -10 35 0 19
-4 35 -10 35 -5 0 -10 11 -10 25 0 14 -4 25 -10 25 -5 0 -10 16 -10 35 0 19
-4 35 -10 35 -5 0 -10 9 -10 20 0 11 -4 20 -9 20 -4 0 -11 21 -14 47 -3 26
-10 49 -16 51 -6 2 -11 15 -11 28 0 13 -4 24 -10 24 -5 0 -10 13 -10 28 0 16
-8 34 -20 42 -11 8 -20 25 -20 37 0 13 -4 23 -10 23 -5 0 -10 7 -10 15 0 8 -4
15 -10 15 -5 0 -10 9 -10 20 0 11 -4 20 -10 20 -5 0 -10 7 -10 15 0 8 -4 15
-10 15 -5 0 -10 9 -10 20 0 11 -4 20 -10 20 -5 0 -12 16 -16 35 -3 19 -10 35
-15 35 -5 0 -9 9 -9 19 0 11 -9 23 -20 26 -11 3 -20 15 -20 26 0 10 -4 19 -10
19 -5 0 -10 6 -10 13 0 7 -9 19 -20 27 -11 8 -20 22 -20 32 0 10 -4 18 -10 18
-5 0 -10 5 -10 11 0 7 -8 19 -19 28 -10 9 -21 26 -25 39 -4 12 -12 22 -17 22
-5 0 -9 7 -9 16 0 17 -36 54 -52 54 -4 0 -8 8 -8 18 0 10 -9 24 -21 32 -40 28
-59 47 -59 59 0 6 -16 27 -35 45 -19 19 -35 37 -35 41 0 3 -24 28 -52 56 -61
57 -88 83 -105 101 -7 7 -31 29 -53 48 -22 19 -52 45 -65 58 -13 12 -29 22
-35 22 -5 0 -35 25 -65 55 -30 30 -61 55 -69 55 -8 0 -26 11 -40 25 -14 14
-28 25 -31 25 -4 0 -13 6 -20 13 -34 30 -45 37 -56 37 -6 0 -19 8 -28 18 -9
11 -28 22 -43 26 -16 3 -28 11 -28 16 0 6 -5 10 -11 10 -7 0 -19 8 -28 19 -9
10 -32 22 -51 26 -19 4 -42 16 -51 26 -9 11 -24 19 -33 19 -9 0 -16 5 -16 10
0 6 -9 10 -20 10 -11 0 -20 4 -20 9 0 5 -15 13 -32 17 -18 3 -40 15 -49 25 -9
11 -26 19 -38 19 -13 0 -29 7 -37 15 -9 8 -26 15 -40 15 -13 0 -24 5 -24 10 0
6 -9 10 -20 10 -11 0 -20 5 -20 10 0 6 -13 10 -30 10 -16 0 -30 4 -30 9 0 5
-16 12 -35 15 -19 4 -35 11 -35 16 0 6 -18 10 -40 10 -22 0 -40 5 -40 10 0 6
-9 10 -20 10 -11 0 -20 4 -20 9 0 4 -24 11 -52 14 -29 4 -54 11 -56 17 -2 5
-21 10 -43 10 -21 0 -39 5 -39 10 0 6 -16 10 -35 10 -19 0 -35 5 -35 10 0 6
-13 10 -30 10 -16 0 -30 4 -30 9 0 4 -42 11 -92 15 -51 3 -94 11 -96 16 -2 6
-41 10 -88 10 -49 0 -84 4 -84 10 0 6 -27 10 -60 10 -33 0 -60 4 -60 10 0 6
-95 10 -265 10 -170 0 -265 -4 -265 -10z m688 -161 c2 -5 24 -9 48 -9 24 0 44
-4 44 -10 0 -6 28 -10 64 -10 35 0 66 -4 68 -10 2 -5 38 -13 81 -16 42 -4 77
-11 77 -15 0 -5 16 -9 35 -9 19 0 35 -4 35 -10 0 -5 9 -10 20 -10 11 0 20 -4
20 -9 0 -5 23 -11 52 -13 29 -3 54 -11 56 -17 2 -6 21 -11 43 -11 21 0 39 -4
39 -10 0 -5 9 -10 20 -10 11 0 20 -4 20 -9 0 -5 20 -12 45 -15 25 -4 45 -11
45 -17 0 -5 9 -9 20 -9 11 0 20 -4 20 -10 0 -5 12 -10 26 -10 15 0 34 -8 43
-19 9 -10 34 -22 57 -25 22 -4 47 -16 54 -27 8 -11 26 -19 42 -19 15 0 28 -4
28 -10 0 -5 11 -12 25 -16 14 -3 25 -10 25 -15 0 -5 7 -9 16 -9 9 0 24 -8 33
-18 9 -11 28 -22 44 -26 15 -3 27 -11 27 -16 0 -6 7 -10 16 -10 9 0 24 -8 33
-19 9 -10 26 -21 39 -25 12 -4 22 -12 22 -17 0 -5 7 -9 16 -9 9 0 29 -13 44
-30 15 -16 35 -30 44 -30 8 0 26 -11 40 -25 14 -14 28 -25 31 -25 7 0 26 -15
70 -57 19 -18 41 -33 49 -33 8 0 26 -12 39 -26 14 -14 29 -30 33 -35 20 -20
115 -106 143 -129 17 -14 31 -30 31 -37 0 -15 67 -83 80 -83 6 0 10 -8 10 -18
0 -10 9 -24 21 -32 43 -30 79 -68 79 -84 0 -9 7 -19 15 -22 8 -4 15 -13 15
-21 0 -16 36 -53 52 -53 4 0 8 -8 8 -18 0 -10 9 -24 20 -32 11 -8 20 -20 20
-27 0 -7 5 -13 10 -13 6 0 10 -9 10 -19 0 -11 9 -22 19 -26 13 -4 22 -19 26
-45 4 -22 11 -40 16 -40 5 0 9 -6 9 -13 0 -7 9 -19 20 -27 11 -8 20 -24 20
-35 0 -11 9 -27 20 -35 11 -8 20 -20 20 -27 0 -7 5 -13 10 -13 6 0 10 -13 10
-30 0 -16 5 -30 10 -30 6 0 10 -7 10 -15 0 -8 5 -15 10 -15 6 0 10 -9 10 -19
0 -11 5 -21 11 -23 5 -2 13 -22 16 -46 3 -23 10 -42 14 -42 5 0 9 -11 9 -25 0
-14 5 -25 10 -25 6 0 10 -7 10 -15 0 -8 5 -15 10 -15 6 0 10 -16 10 -35 0 -19
5 -35 10 -35 6 0 10 -9 10 -20 0 -11 5 -20 10 -20 6 0 10 -16 10 -35 0 -19 5
-35 10 -35 6 0 10 -16 10 -35 0 -19 5 -35 10 -35 6 0 10 -16 10 -35 0 -19 5
-35 10 -35 6 0 10 -20 10 -44 0 -24 5 -46 11 -48 6 -2 13 -51 16 -116 3 -61
10 -112 14 -112 5 0 9 -31 9 -70 0 -40 4 -70 10 -70 6 0 10 -75 10 -205 0
-130 -4 -205 -10 -205 -6 0 -10 -27 -10 -60 0 -33 -4 -60 -9 -60 -4 0 -11 -46
-13 -102 -3 -64 -9 -103 -17 -106 -6 -2 -11 -26 -11 -58 0 -30 -4 -54 -10 -54
-5 0 -10 -16 -10 -35 0 -19 -4 -35 -10 -35 -5 0 -10 -11 -10 -25 0 -14 -4 -25
-10 -25 -5 0 -10 -20 -10 -45 0 -25 -4 -45 -10 -45 -5 0 -10 -7 -10 -15 0 -8
-4 -15 -10 -15 -5 0 -10 -15 -10 -33 0 -21 -7 -38 -20 -47 -13 -9 -20 -26 -20
-47 0 -18 -4 -33 -9 -33 -5 0 -12 -16 -15 -35 -4 -19 -11 -35 -16 -35 -6 0
-10 -13 -10 -30 0 -16 -4 -30 -10 -30 -5 0 -10 -7 -10 -15 0 -8 -4 -15 -10
-15 -5 0 -10 -9 -10 -20 0 -11 -4 -20 -10 -20 -5 0 -10 -7 -10 -15 0 -8 -4
-15 -10 -15 -5 0 -10 -9 -10 -20 0 -11 -4 -20 -10 -20 -5 0 -10 -7 -10 -15 0
-8 -4 -15 -10 -15 -5 0 -10 -9 -10 -20 0 -11 -4 -20 -10 -20 -5 0 -10 -7 -10
-15 0 -8 -4 -15 -10 -15 -5 0 -10 -9 -10 -19 0 -11 -7 -26 -15 -35 -8 -8 -15
-19 -15 -25 0 -6 -4 -11 -10 -11 -5 0 -10 -9 -10 -19 0 -11 -9 -23 -20 -26
-11 -3 -20 -14 -20 -23 0 -10 -9 -24 -20 -32 -11 -8 -20 -19 -20 -25 0 -6 -9
-17 -20 -25 -11 -8 -20 -20 -20 -27 0 -8 -16 -29 -35 -47 -19 -19 -35 -37 -35
-41 0 -4 -13 -20 -30 -35 -17 -15 -30 -31 -30 -35 0 -7 -153 -157 -199 -195
-17 -14 -31 -31 -31 -37 0 -7 -9 -13 -19 -13 -11 0 -22 -8 -25 -18 -3 -10 -16
-24 -27 -32 -12 -8 -44 -36 -71 -62 -27 -27 -58 -48 -69 -48 -10 0 -19 -4 -19
-8 0 -16 -37 -52 -53 -52 -9 0 -27 -11 -41 -25 -14 -14 -30 -25 -36 -25 -10 0
-21 -8 -55 -38 -7 -6 -18 -12 -24 -12 -6 0 -11 -4 -11 -10 0 -5 -7 -10 -15
-10 -15 0 -25 -6 -60 -38 -7 -6 -21 -12 -29 -12 -9 0 -16 -4 -16 -10 0 -5 -9
-10 -20 -10 -11 0 -20 -4 -20 -10 0 -5 -5 -10 -11 -10 -6 0 -17 -7 -25 -15 -9
-8 -24 -15 -35 -15 -10 0 -19 -4 -19 -10 0 -5 -9 -10 -20 -10 -11 0 -20 -4
-20 -10 0 -5 -9 -10 -20 -10 -11 0 -20 -4 -20 -9 0 -5 -16 -12 -35 -15 -19 -4
-35 -11 -35 -16 0 -6 -9 -10 -20 -10 -11 0 -20 -4 -20 -10 0 -5 -9 -10 -20
-10 -11 0 -20 -4 -20 -9 0 -4 -19 -11 -42 -14 -24 -3 -44 -11 -46 -16 -2 -6
-12 -11 -23 -11 -10 0 -19 -4 -19 -10 0 -5 -13 -10 -29 -10 -16 0 -31 -5 -33
-10 -2 -6 -27 -13 -56 -17 -28 -3 -52 -10 -52 -14 0 -5 -13 -9 -30 -9 -16 0
-30 -4 -30 -10 0 -5 -13 -10 -30 -10 -16 0 -30 -4 -30 -10 0 -5 -20 -10 -44
-10 -24 0 -46 -5 -48 -10 -2 -6 -40 -13 -86 -17 -45 -3 -82 -10 -82 -14 0 -5
-13 -9 -30 -9 -16 0 -30 -4 -30 -10 0 -6 -35 -10 -84 -10 -51 0 -86 -4 -88
-11 -5 -15 -731 -15 -736 0 -2 7 -35 11 -83 11 -46 0 -79 4 -79 10 0 6 -16 10
-35 10 -19 0 -35 4 -35 9 0 4 -37 11 -82 14 -45 3 -84 10 -86 16 -2 6 -26 11
-53 11 -27 0 -49 5 -49 10 0 6 -11 10 -25 10 -14 0 -25 5 -25 10 0 6 -13 10
-30 10 -16 0 -30 4 -30 9 0 4 -26 11 -57 14 -32 3 -59 11 -61 17 -2 5 -15 10
-28 10 -13 0 -24 5 -24 10 0 6 -9 10 -20 10 -11 0 -20 4 -20 10 0 5 -22 12
-50 16 -27 4 -50 10 -50 15 0 5 -7 9 -15 9 -8 0 -15 5 -15 10 0 6 -9 10 -20
10 -11 0 -20 4 -20 9 0 5 -18 12 -40 16 -22 4 -40 11 -40 16 0 5 -9 9 -20 9
-11 0 -20 5 -20 10 0 6 -7 10 -15 10 -8 0 -15 5 -15 10 0 6 -9 10 -19 10 -11
0 -26 7 -35 15 -8 8 -21 15 -28 15 -8 0 -20 9 -28 20 -8 11 -22 20 -32 20 -10
0 -18 4 -18 9 0 5 -11 12 -25 15 -14 4 -25 11 -25 16 0 6 -7 10 -16 10 -9 0
-24 8 -33 18 -9 11 -28 22 -43 26 -16 3 -28 11 -28 16 0 6 -9 10 -19 10 -11 0
-23 9 -26 20 -3 11 -18 23 -33 27 -15 3 -39 19 -54 35 -14 15 -33 28 -42 28
-8 0 -26 11 -38 25 -68 75 -136 135 -153 135 -8 0 -15 5 -15 11 0 10 -70 80
-179 179 -28 25 -50 50 -50 57 -1 7 -12 23 -26 37 -14 14 -25 28 -25 32 0 3
-13 19 -30 34 -17 15 -30 32 -30 37 0 5 -9 15 -20 23 -11 8 -20 19 -20 24 0 5
-8 16 -18 25 -11 9 -22 28 -26 44 -3 15 -11 27 -16 27 -6 0 -10 6 -10 13 0 7
-9 19 -20 27 -11 8 -20 20 -20 27 0 7 -4 13 -10 13 -5 0 -10 8 -10 18 0 10 -9
24 -20 32 -11 8 -20 20 -20 27 0 7 -4 13 -10 13 -5 0 -10 9 -10 20 0 11 -4 20
-10 20 -5 0 -10 7 -10 15 0 8 -4 15 -9 15 -5 0 -12 16 -15 35 -4 19 -11 35
-16 35 -6 0 -10 9 -10 20 0 11 -4 20 -10 20 -5 0 -10 7 -10 15 0 8 -4 15 -10
15 -5 0 -10 14 -10 30 0 17 -4 30 -10 30 -5 0 -10 7 -10 15 0 8 -4 15 -10 15
-5 0 -10 9 -10 20 0 11 -4 20 -10 20 -5 0 -10 16 -10 35 0 19 -4 35 -10 35 -5
0 -10 7 -10 15 0 8 -4 15 -10 15 -5 0 -10 14 -10 30 0 17 -4 30 -10 30 -5 0
-12 27 -16 60 -4 33 -11 60 -15 60 -5 0 -9 16 -9 35 0 19 -4 35 -10 35 -5 0
-10 11 -10 25 0 14 -4 25 -10 25 -5 0 -10 25 -10 55 0 30 -4 55 -10 55 -5 0
-10 16 -10 35 0 19 -4 35 -10 35 -6 0 -10 33 -10 80 0 47 -4 80 -10 80 -6 0
-10 45 -10 115 0 70 -4 115 -10 115 -6 0 -10 33 -10 80 0 47 4 80 10 80 6 0
10 47 10 120 0 73 4 120 10 120 6 0 10 33 10 80 0 47 4 80 10 80 6 0 10 16 10
35 0 19 5 35 10 35 6 0 10 25 10 55 0 30 5 55 10 55 6 0 10 11 10 25 0 14 5
25 10 25 6 0 10 20 10 45 0 25 4 45 9 45 5 0 13 25 16 55 4 30 11 55 16 55 5
0 9 16 9 35 0 19 5 35 10 35 6 0 10 7 10 15 0 8 5 15 10 15 6 0 10 11 10 25 0
14 5 25 10 25 6 0 10 9 10 20 0 11 5 20 10 20 6 0 10 7 10 15 0 8 5 15 10 15
6 0 10 14 10 30 0 17 5 30 10 30 6 0 10 7 10 15 0 8 5 15 10 15 6 0 10 13 10
29 0 16 6 31 15 35 8 3 15 15 15 26 0 11 5 20 10 20 6 0 10 7 10 15 0 8 5 15
10 15 6 0 10 9 10 20 0 11 5 20 10 20 6 0 10 6 10 13 0 7 9 19 20 27 12 8 20
26 20 42 0 18 6 29 20 33 11 3 20 13 20 22 0 9 8 23 19 32 10 9 21 26 25 39 4
12 12 22 17 22 5 0 9 6 9 13 0 7 9 19 20 27 11 8 20 22 20 32 0 10 4 18 8 18
15 0 52 37 52 51 0 8 10 21 21 29 37 26 49 41 49 61 0 10 4 19 9 19 11 0 91
75 91 85 0 4 15 20 33 36 17 16 36 33 41 38 72 75 123 121 136 121 11 0 31 15
53 38 51 55 83 82 97 82 6 0 22 11 36 25 14 14 34 25 44 25 11 0 20 4 20 8 0
16 37 52 54 52 9 0 16 4 16 10 0 5 12 13 28 16 15 4 34 15 43 26 9 10 24 18
33 18 9 0 16 4 16 9 0 5 10 13 23 17 12 4 29 15 38 25 9 11 24 19 33 19 9 0
16 4 16 9 0 5 18 12 40 16 22 4 40 11 40 16 0 5 6 9 13 9 7 0 19 9 27 20 8 12
31 22 59 26 26 4 53 15 62 25 9 11 26 19 38 19 11 0 21 5 21 10 0 6 9 10 20
10 11 0 20 4 20 9 0 5 23 11 50 15 28 4 50 11 50 16 0 6 9 10 20 10 11 0 20 5
20 10 0 6 15 10 34 10 19 0 36 5 38 10 2 6 29 14 61 17 31 3 57 10 57 14 0 5
7 9 15 9 8 0 15 5 15 10 0 6 18 10 40 10 22 0 40 4 40 9 0 4 33 11 73 15 39 4
74 11 75 16 2 6 33 10 68 10 36 0 64 4 64 10 0 6 23 10 50 10 28 0 50 4 50 10
0 13 198 18 555 13 175 -2 301 -8 303 -14z"/>
<path d="M4310 5951 c0 -5 -18 -12 -40 -16 -22 -4 -40 -11 -40 -16 0 -5 -9 -9
-19 -9 -11 0 -23 -9 -26 -20 -3 -11 -15 -20 -25 -20 -10 0 -36 -17 -58 -37
-22 -21 -49 -45 -61 -53 -11 -8 -21 -21 -21 -30 0 -9 -9 -22 -20 -30 -11 -8
-20 -24 -20 -36 0 -13 -7 -29 -15 -38 -8 -8 -15 -28 -15 -45 0 -17 -4 -31 -10
-31 -6 0 -10 -47 -10 -120 0 -73 4 -120 10 -120 6 0 10 -16 10 -35 0 -19 4
-35 9 -35 5 0 12 -16 15 -35 4 -19 11 -35 16 -35 6 0 10 -7 10 -16 0 -15 16
-31 103 -106 21 -18 49 -43 62 -55 13 -13 29 -23 35 -23 5 0 10 -4 10 -10 0
-5 23 -12 50 -16 28 -4 50 -10 50 -15 0 -5 16 -9 35 -9 19 0 35 -4 35 -10 0
-6 42 -10 105 -10 63 0 105 4 105 10 0 6 18 10 40 10 22 0 40 5 40 10 0 6 13
10 29 10 16 0 36 7 45 15 8 8 22 15 31 15 8 0 26 9 38 20 12 11 41 37 64 58
81 72 93 85 93 107 0 8 5 15 10 15 6 0 10 7 10 15 0 8 5 15 10 15 6 0 10 9 10
20 0 11 5 20 10 20 6 0 10 16 10 35 0 19 5 35 10 35 6 0 10 45 10 115 0 70 -4
115 -10 115 -5 0 -10 17 -10 38 0 26 -6 42 -20 52 -11 8 -20 23 -20 33 0 10
-11 29 -25 43 -14 14 -25 34 -25 44 0 11 -4 20 -9 20 -5 0 -28 18 -51 40 -23
22 -49 40 -59 40 -9 0 -23 9 -31 20 -8 11 -20 20 -27 20 -7 0 -13 4 -13 9 0 5
-22 11 -50 15 -27 4 -50 11 -50 16 0 6 -67 10 -170 10 -96 0 -170 -4 -170 -9z"/>
<path d="M4290 4280 c0 -6 -90 -10 -250 -10 -160 0 -250 -4 -250 -10 0 -6 -60
-10 -160 -10 -100 0 -160 -4 -160 -10 0 -6 -48 -10 -124 -10 l-124 0 -4 -57
c-3 -31 -10 -59 -16 -61 -7 -2 -12 -19 -12 -38 0 -19 -4 -34 -10 -34 -5 0 -10
-11 -10 -24 0 -13 -6 -26 -12 -28 -9 -3 -8 -9 4 -21 14 -15 41 -17 182 -17
104 0 166 -4 166 -10 0 -5 18 -10 40 -10 22 0 40 -4 40 -10 0 -5 6 -10 14 -10
17 0 96 -74 96 -89 0 -6 5 -11 10 -11 6 0 10 -30 10 -70 0 -40 -4 -70 -10 -70
-5 0 -10 -9 -10 -20 0 -11 -4 -20 -10 -20 -5 0 -10 -20 -10 -45 0 -25 -4 -45
-10 -45 -5 0 -10 -11 -10 -25 0 -14 -4 -25 -10 -25 -5 0 -10 -16 -10 -35 0
-19 -4 -35 -10 -35 -5 0 -10 -15 -10 -34 0 -19 -5 -36 -10 -38 -6 -2 -13 -33
-17 -71 -3 -37 -10 -67 -14 -67 -5 0 -9 -9 -9 -20 0 -11 -4 -20 -10 -20 -5 0
-10 -18 -10 -40 0 -22 -4 -40 -10 -40 -5 0 -10 -16 -10 -35 0 -19 -4 -35 -10
-35 -5 0 -10 -13 -10 -30 0 -16 -4 -30 -10 -30 -5 0 -10 -16 -10 -35 0 -19 -4
-35 -10 -35 -5 0 -10 -11 -10 -25 0 -14 -4 -25 -10 -25 -5 0 -10 -20 -10 -45
0 -25 -4 -45 -10 -45 -5 0 -10 -11 -10 -25 0 -14 -4 -25 -9 -25 -5 0 -12 -31
-16 -70 -4 -38 -11 -70 -16 -70 -5 0 -9 -13 -9 -30 0 -16 -4 -30 -10 -30 -5 0
-10 -18 -10 -40 0 -22 -4 -40 -10 -40 -5 0 -10 -9 -10 -20 0 -11 -4 -20 -10
-20 -5 0 -10 -16 -10 -35 0 -19 -4 -35 -10 -35 -5 0 -10 -20 -10 -45 0 -25 -4
-45 -10 -45 -5 0 -10 -11 -10 -25 0 -14 -4 -25 -10 -25 -5 0 -10 -16 -10 -35
0 -19 -4 -35 -10 -35 -5 0 -10 -13 -10 -30 0 -16 -4 -30 -9 -30 -5 0 -12 -34
-16 -75 -4 -41 -11 -75 -16 -75 -5 0 -9 -84 -9 -195 0 -115 4 -195 9 -195 6 0
13 -20 17 -45 3 -25 10 -45 15 -45 5 0 9 -9 9 -20 0 -11 5 -20 10 -20 6 0 10
-6 10 -12 0 -7 14 -24 31 -38 16 -14 48 -42 70 -63 22 -20 47 -37 55 -37 8 0
14 -4 14 -10 0 -5 9 -10 20 -10 11 0 20 -4 20 -10 0 -5 9 -10 20 -10 11 0 20
-4 20 -10 0 -5 18 -10 40 -10 22 0 40 -4 40 -10 0 -6 57 -10 150 -10 93 0 150
4 150 10 0 6 25 10 55 10 30 0 55 5 55 10 0 6 9 10 20 10 11 0 20 5 20 10 0 6
14 10 30 10 17 0 30 4 30 9 0 5 18 12 40 16 22 4 40 11 40 16 0 5 10 9 21 9
12 0 29 8 38 18 9 11 28 22 44 26 15 3 27 11 27 16 0 6 8 10 18 10 9 0 26 11
36 25 10 14 25 25 33 25 8 0 28 14 43 30 15 17 35 30 44 30 8 0 31 16 50 36
48 52 47 50 94 93 23 22 42 42 42 46 0 9 60 65 70 65 4 0 10 13 13 29 4 18 14
32 27 36 11 3 20 13 20 22 0 8 14 28 30 43 17 15 30 32 30 37 0 5 9 15 20 23
11 8 20 19 20 25 0 6 9 17 20 25 11 8 20 23 20 33 0 9 7 20 15 23 8 4 15 15
15 25 0 10 5 19 10 19 6 0 10 6 10 13 0 7 9 19 20 27 11 8 20 22 20 32 0 10 5
18 10 18 6 0 10 6 10 13 0 7 9 19 20 27 11 8 20 22 20 32 0 10 5 18 10 18 6 0
10 5 10 11 0 16 -26 39 -44 39 -9 0 -16 5 -16 10 0 6 -9 10 -19 10 -11 0 -26
7 -35 15 -8 8 -22 15 -30 15 -9 0 -16 5 -16 10 0 6 -5 10 -11 10 -6 0 -17 7
-26 16 -9 8 -22 13 -30 10 -8 -3 -21 -6 -29 -6 -8 0 -14 -9 -14 -20 0 -11 -4
-20 -10 -20 -5 0 -10 -7 -10 -15 0 -8 -4 -15 -10 -15 -5 0 -10 -8 -10 -18 0
-10 -9 -24 -20 -32 -11 -8 -23 -29 -26 -47 -4 -19 -14 -35 -25 -38 -10 -4 -19
-14 -19 -23 0 -10 -9 -24 -20 -32 -11 -8 -20 -19 -20 -25 0 -6 -9 -17 -20 -25
-11 -8 -20 -22 -20 -32 0 -10 -4 -18 -10 -18 -5 0 -10 -5 -10 -11 0 -6 -16
-26 -35 -45 -19 -18 -35 -39 -35 -47 0 -7 -9 -19 -21 -27 -43 -30 -79 -68 -79
-84 0 -9 -4 -16 -10 -16 -12 0 -60 -48 -60 -60 0 -5 -12 -13 -27 -16 -16 -4
-40 -20 -54 -35 -14 -15 -42 -30 -62 -34 -20 -4 -37 -11 -37 -16 0 -5 -16 -9
-35 -9 -19 0 -35 5 -35 10 0 6 -9 10 -20 10 -11 0 -20 7 -20 15 0 8 -4 15 -10
15 -5 0 -10 9 -10 20 0 11 -4 20 -10 20 -5 0 -10 11 -10 25 0 14 5 25 10 25 6
0 10 20 10 45 0 25 5 45 10 45 6 0 10 20 10 45 0 25 5 45 10 45 6 0 10 7 10
15 0 8 5 15 10 15 6 0 10 20 10 45 0 25 5 45 10 45 6 0 10 11 10 25 0 14 5 25
10 25 6 0 10 16 10 35 0 19 4 35 9 35 4 0 11 28 14 62 3 34 10 64 16 66 6 2
11 21 11 43 0 21 5 39 10 39 6 0 10 14 10 30 0 17 5 30 10 30 6 0 10 16 10 35
0 19 5 35 10 35 6 0 10 16 10 35 0 19 5 35 10 35 6 0 10 11 10 25 0 14 5 25
10 25 6 0 10 20 10 45 0 25 5 45 10 45 6 0 10 9 10 20 0 11 5 20 10 20 6 0 10
18 10 40 0 22 4 40 9 40 5 0 13 29 16 65 4 36 11 65 16 65 5 0 9 16 9 35 0 19
5 35 10 35 6 0 10 11 10 25 0 14 5 25 10 25 6 0 10 20 10 45 0 25 5 45 10 45
6 0 10 7 10 15 0 8 5 15 10 15 6 0 10 20 10 45 0 25 5 45 10 45 6 0 10 14 10
30 0 17 5 30 10 30 6 0 10 16 10 35 0 19 5 35 10 35 6 0 10 15 10 34 0 19 5
36 10 38 6 2 13 33 17 71 3 37 10 67 14 67 5 0 9 7 9 15 0 8 5 15 10 15 6 0
10 20 10 45 0 25 5 45 10 45 6 0 10 16 10 35 0 19 5 35 10 35 6 0 10 11 10 25
0 14 5 25 10 25 6 0 10 20 10 45 0 25 5 45 10 45 6 0 10 9 10 20 0 11 5 20 10
20 6 0 10 20 10 45 0 25 5 45 10 45 6 0 10 11 10 25 0 14 4 25 9 25 5 0 12 32
16 70 4 39 11 70 16 70 5 0 9 9 9 20 0 19 -7 20 -245 20 -157 0 -245 -4 -245
-10z"/>
</g>
</svg>
